<?xml version="1.0" standalone="no"?>
<!DOCTYPE svg PUBLIC "-//W3C//DTD SVG 20010904//EN"
 "http://www.w3.org/TR/2001/REC-SVG-20010904/DTD/svg10.dtd">
<svg version="1.0" xmlns="http://www.w3.org/2000/svg"
 width="2015.000000pt" height="2006.000000pt" viewBox="0 0 2015.000000 2006.000000"
 preserveAspectRatio="xMidYMid meet">
<metadata>
Created by potrace 1.16, written by Peter Selinger 2001-2019
</metadata>
<g transform="translate(0.000000,2006.000000) scale(0.100000,-0.100000)"
fill="#000000" stroke="none">
<path d="M7345 10043 c-586 -27 -813 -49 -1175 -114 -202 -35 -675 -148 -884
-210 l-69 -21 41 -18 c52 -24 76 -67 76 -141 1 -42 -4 -62 -18 -78 -39 -43
-88 -14 -66 39 7 17 10 44 6 64 -5 28 -13 37 -40 46 -44 14 -77 -1 -109 -49
-65 -99 -76 -285 -20 -351 26 -32 73 -49 112 -42 32 7 91 68 91 96 0 22 -2 23
-42 15 -110 -23 -110 -23 -124 -4 -40 54 1 84 124 92 85 6 90 5 105 -18 21
-29 22 -100 3 -137 -8 -15 -29 -41 -48 -59 -88 -85 -211 -84 -285 0 -83 94
-84 308 -3 440 16 26 26 47 23 47 -34 0 -381 -149 -450 -193 l-43 -27 0 -91
c0 -119 22 -220 76 -353 90 -223 256 -464 392 -570 78 -61 125 -122 118 -152
-29 -114 -350 31 -608 275 -156 148 -241 278 -254 387 -4 30 2 106 16 191 12
79 20 152 18 164 -3 19 -14 14 -108 -50 -58 -38 -143 -103 -190 -143 l-85 -74
-6 -59 c-7 -58 -5 -63 56 -190 47 -96 83 -153 138 -220 85 -103 137 -149 291
-258 297 -210 431 -287 576 -332 47 -14 164 -55 260 -90 582 -215 924 -289
1495 -324 88 -6 257 -18 375 -27 342 -26 863 -9 1255 41 461 59 940 181 1330
337 644 259 1072 561 1353 956 29 40 52 83 52 95 0 62 -226 314 -370 413 -112
77 -302 183 -436 244 -159 72 -398 161 -402 149 -7 -19 -50 -8 -87 21 -21 17
-39 30 -40 30 -2 0 -60 16 -130 35 -112 30 -129 33 -142 20 -21 -22 -43 -18
-74 11 -21 20 -50 31 -121 46 -467 96 -1078 150 -1653 146 -132 -1 -267 -3
-300 -5z m-1134 -359 c8 -10 10 -68 6 -196 -5 -191 -19 -278 -56 -328 -62 -86
-178 -94 -247 -18 -56 61 -59 77 -59 307 l0 214 34 14 c18 8 43 13 55 11 23
-3 23 2 6 -128 -13 -104 -12 -301 1 -339 19 -55 88 -70 127 -28 44 47 55 101
56 272 1 88 -3 170 -7 182 -17 46 51 76 84 37z m430 6 c23 -13 25 -55 3 -64
-9 -3 -41 -6 -72 -6 -56 -1 -177 -22 -189 -34 -8 -8 -17 -152 -10 -169 5 -13
15 -13 73 -2 94 17 134 5 134 -41 0 -22 -4 -24 -52 -25 -29 0 -78 -6 -108 -12
l-55 -12 -3 -50 c-3 -59 15 -99 46 -103 13 -2 63 6 112 18 93 24 133 20 154
-12 14 -24 -10 -48 -48 -48 -17 0 -63 -9 -101 -20 -88 -25 -131 -25 -172 0
-63 38 -68 60 -67 303 0 157 4 221 12 230 16 15 210 55 275 56 27 1 57 -4 68
-9z m-1092 -34 c11 -25 12 -52 2 -166 -14 -169 -14 -275 -1 -301 13 -24 45
-24 133 -2 l69 18 19 -24 c10 -13 19 -29 19 -36 0 -23 -72 -40 -172 -40 -88 0
-98 2 -122 24 -15 14 -31 42 -37 64 -13 49 -1 466 14 485 18 22 60 10 76 -22z
m3247 -153 c142 -48 266 -285 252 -482 -9 -128 -72 -209 -167 -219 -116 -11
-225 111 -238 268 -5 63 -4 69 17 80 16 9 29 9 45 2 20 -9 23 -16 18 -50 -6
-46 27 -120 81 -177 28 -30 41 -36 67 -33 93 9 103 196 20 373 -68 146 -159
197 -256 142 -58 -33 -85 -78 -85 -142 0 -65 -24 -101 -59 -90 -27 8 -41 42
-41 96 0 96 82 194 199 235 49 18 88 17 147 -3z m-472 -254 c74 -51 126 -163
126 -273 0 -74 -22 -122 -70 -154 -70 -48 -192 -10 -260 81 -52 68 -74 136
-67 204 7 71 38 116 102 149 60 31 118 28 169 -7z m-375 -209 c43 -45 94 -136
141 -255 17 -44 54 -124 82 -178 57 -112 57 -134 -6 -163 -51 -25 -79 -12
-127 54 -85 117 -332 342 -353 321 -3 -3 28 -71 69 -151 91 -176 125 -265 128
-328 2 -54 -23 -93 -56 -88 -16 2 -23 19 -37 89 -14 69 -36 123 -110 270 -80
159 -93 190 -94 237 -1 62 16 82 71 82 66 0 145 -52 291 -195 l94 -90 -22 55
c-47 123 -111 240 -151 279 -37 36 -40 41 -28 62 27 52 57 51 108 -1z m2572
-179 c56 -57 31 -114 -102 -231 -226 -199 -432 -337 -727 -484 -267 -133 -472
-210 -767 -286 -494 -128 -943 -176 -1477 -159 -584 20 -1307 152 -1578 289
-59 30 -75 49 -65 81 12 35 43 30 315 -48 388 -113 493 -136 750 -169 161 -21
638 -29 830 -15 448 34 906 124 1275 252 557 191 925 385 1322 696 149 116
173 124 224 74z m-3170 -91 c54 -15 114 -87 166 -198 24 -54 73 -156 109 -228
35 -72 64 -137 64 -144 0 -20 -31 -50 -50 -50 -44 0 -87 69 -174 275 -87 207
-136 276 -185 260 -11 -3 -52 -35 -91 -71 -39 -35 -77 -64 -84 -64 -8 0 -28
11 -43 24 l-28 24 30 32 c41 43 153 118 201 135 48 17 42 17 85 5z m-430 -230
c54 -15 114 -87 166 -198 24 -54 73 -156 109 -228 35 -72 64 -137 64 -144 0
-20 -31 -50 -50 -50 -44 0 -87 69 -174 275 -87 207 -136 276 -185 260 -11 -3
-52 -35 -91 -71 -39 -35 -77 -64 -84 -64 -8 0 -28 11 -43 24 l-28 24 30 32
c41 43 153 118 201 135 48 17 42 17 85 5z"/>
<path d="M8169 9171 c-67 -54 27 -283 116 -283 71 0 87 90 36 198 -45 96 -101
127 -152 85z"/>
<path d="M10518 7778 c-29 -17 -39 -30 -48 -67 -7 -25 -14 -53 -16 -63 -5 -18
-69 -70 -94 -76 -29 -7 -125 -19 -130 -17 -3 2 -40 6 -82 10 -75 6 -81 5 -275
-58 -1160 -377 -2622 -456 -3903 -211 -170 32 -393 84 -580 135 -62 17 -511
159 -553 174 -12 5 -82 -130 -102 -195 -6 -21 -52 -106 -60 -112 -5 -4 -7 -8
-3 -8 4 0 2 -13 -3 -30 -7 -18 -16 -27 -22 -23 -7 3 -9 3 -5 -2 4 -4 2 -15 -5
-23 -9 -13 -9 -14 0 -8 7 4 13 3 13 -2 0 -12 32 -11 49 2 11 8 13 8 8 0 -4 -7
1 -15 10 -19 10 -3 19 -1 21 5 2 6 11 3 21 -9 9 -11 34 -23 55 -27 21 -3 47
-15 57 -25 12 -12 19 -14 19 -6 0 9 3 8 9 -2 5 -7 23 -15 41 -17 17 -2 36 -7
42 -10 7 -4 8 -2 4 4 -4 7 -2 12 3 12 6 0 11 -8 11 -18 0 -22 40 -43 69 -37
11 2 23 -1 27 -7 4 -6 10 -5 15 3 7 11 9 10 9 -5 0 -11 5 -16 14 -13 7 3 19 0
25 -6 8 -8 11 -8 11 0 0 7 12 6 33 -5 17 -9 43 -18 57 -20 13 -2 30 -7 36 -13
6 -5 14 -6 17 -2 4 3 7 1 7 -4 0 -6 8 -10 18 -8 9 1 23 -2 30 -8 8 -6 12 -6
12 2 0 6 15 2 35 -9 21 -12 35 -15 35 -8 0 6 8 4 18 -5 10 -10 22 -14 25 -11
4 4 13 2 20 -4 8 -7 17 -9 20 -5 4 3 13 0 22 -7 12 -10 15 -10 15 0 0 9 7 7
20 -5 13 -12 20 -14 20 -5 0 10 3 10 15 0 9 -7 18 -10 22 -7 3 4 11 3 18 -3 6
-5 27 -11 46 -13 19 -2 40 -7 48 -11 7 -4 15 -5 18 -2 3 3 12 1 19 -5 7 -6 25
-12 41 -14 15 -2 48 -9 73 -15 65 -15 93 -21 113 -21 9 0 17 -4 17 -8 0 -4 21
-6 48 -5 26 0 55 -4 65 -11 10 -7 27 -11 38 -8 10 3 19 1 19 -3 0 -5 17 -10
37 -11 59 -3 98 -9 112 -18 8 -4 16 -3 20 4 6 8 17 7 44 -4 23 -9 38 -11 42
-5 4 7 13 6 27 -1 11 -6 30 -8 43 -5 13 3 40 0 61 -7 22 -8 71 -13 114 -11 41
1 101 -4 132 -11 31 -7 58 -9 60 -5 2 5 36 2 77 -7 47 -9 76 -11 80 -5 4 6 40
4 99 -6 56 -9 97 -12 100 -6 8 10 634 13 642 3 3 -4 32 -2 65 2 33 5 114 11
180 14 66 2 136 9 154 15 22 6 37 6 41 0 3 -6 27 -4 60 5 34 9 56 11 60 5 4
-7 18 -6 38 1 18 6 39 8 47 5 8 -3 15 0 15 6 0 7 4 7 14 -1 8 -7 16 -8 18 -3
4 12 58 25 58 14 0 -5 7 -9 15 -9 8 0 15 4 15 8 0 13 30 18 55 9 17 -7 25 -6
25 1 0 6 7 8 16 5 8 -3 29 1 47 10 20 11 32 13 35 6 2 -7 12 -8 25 -3 12 4 28
6 35 4 7 -3 20 -1 30 3 9 4 22 9 27 9 6 1 18 5 28 10 10 4 20 5 24 2 3 -4 18
0 34 9 16 8 29 10 29 5 0 -5 23 -1 50 9 29 11 50 14 50 8 0 -7 4 -7 13 -1 6 6
20 11 30 12 9 0 25 2 35 2 9 1 22 6 29 11 6 5 27 11 45 14 53 7 62 9 76 17 6
5 16 6 21 2 5 -3 12 -1 15 4 3 5 15 7 26 4 12 -3 20 0 20 6 0 7 4 10 9 6 5 -3
13 0 16 6 4 5 13 8 21 5 7 -3 16 -1 19 5 4 5 10 7 15 4 5 -3 12 -1 15 5 4 6
15 8 26 5 11 -4 19 -2 19 5 0 6 5 8 10 5 6 -3 13 1 16 10 6 13 8 14 15 3 7
-11 9 -11 9 1 0 7 6 11 15 8 8 -4 17 -2 20 3 3 5 12 7 20 3 8 -3 15 0 15 7 0
6 4 9 9 6 5 -3 11 1 14 9 4 8 15 12 26 10 11 -2 23 1 26 6 4 5 10 7 15 4 5 -3
11 -1 15 4 3 6 13 7 22 4 11 -4 14 -3 9 5 -5 8 -2 10 8 6 9 -3 16 -1 16 6 0 6
5 8 10 5 6 -3 10 -1 10 4 0 6 3 10 8 9 4 -1 17 3 30 10 12 7 22 10 22 7 0 -3
10 0 23 7 12 7 25 11 30 10 4 -1 7 2 7 8 0 5 7 6 17 3 11 -4 14 -3 9 5 -5 8
-1 10 10 5 10 -4 20 0 26 10 5 10 16 17 23 17 8 0 15 3 15 8 0 4 23 17 50 30
30 14 48 28 44 34 -4 7 -2 8 5 4 6 -4 22 -1 34 7 12 8 37 18 55 21 31 7 37 15
32 45 -1 13 1 13 15 1 9 -7 15 -9 14 -4 -4 21 2 34 14 34 48 0 171 95 145 111
-10 7 -10 9 0 9 6 0 12 9 12 20 0 11 5 20 11 20 5 0 7 5 4 10 -3 6 -1 10 5 10
6 0 9 4 6 9 -4 5 0 11 6 13 9 3 14 33 15 99 2 104 -3 133 -19 123 -6 -4 -8 -2
-4 4 7 12 -19 42 -37 42 -7 0 -28 -10 -49 -22z"/>
</g>
</svg>
